<?xml version="1.0" encoding="UTF-8"?>
<svg id="Layer_2" data-name="Layer 2" xmlns="http://www.w3.org/2000/svg" viewBox="0 0 155.98 33.26">
  <defs>
    <style>
      .cls-1 {
        fill: #e6e7e7;
      }
    </style>
  </defs>
  <g id="Layer_1-2" data-name="Layer 1">
    <g>
      <path class="cls-1" d="M16.29,32.94l-6.09-11.62h-.05v11.62H0V.55h15.1c2.62,0,4.87.47,6.73,1.4,1.86.93,3.26,2.2,4.19,3.8.93,1.6,1.4,3.41,1.4,5.42,0,2.17-.6,4.09-1.81,5.77-1.21,1.68-2.94,2.88-5.19,3.61l7.05,12.4h-11.16ZM10.16,14.55h4.03c.98,0,1.71-.22,2.2-.66.49-.44.73-1.14.73-2.08,0-.85-.25-1.52-.75-2.01-.5-.49-1.23-.73-2.17-.73h-4.03v5.49Z"/>
      <path class="cls-1" d="M38.05,31.11c-2.55-1.43-4.57-3.42-6.06-5.95-1.49-2.53-2.24-5.38-2.24-8.56s.75-6.02,2.24-8.56c1.49-2.53,3.52-4.51,6.06-5.93,2.55-1.42,5.35-2.13,8.4-2.13s5.84.71,8.37,2.13c2.53,1.42,4.54,3.39,6.02,5.93,1.48,2.53,2.22,5.38,2.22,8.56s-.74,6.02-2.22,8.56c-1.48,2.53-3.49,4.51-6.04,5.95-2.55,1.43-5.33,2.15-8.35,2.15s-5.85-.72-8.4-2.15ZM51.11,21.85c1.1-1.3,1.65-3.04,1.65-5.24s-.55-3.99-1.65-5.28c-1.1-1.3-2.65-1.94-4.67-1.94s-3.61.65-4.71,1.94c-1.1,1.3-1.65,3.06-1.65,5.28s.55,3.94,1.65,5.24c1.1,1.3,2.67,1.94,4.71,1.94s3.57-.65,4.67-1.94Z"/>
      <path class="cls-1" d="M74.1,31.11c-2.55-1.43-4.57-3.42-6.06-5.95-1.49-2.53-2.24-5.38-2.24-8.56s.75-6.02,2.24-8.56c1.49-2.53,3.52-4.51,6.06-5.93,2.55-1.42,5.35-2.13,8.4-2.13s5.84.71,8.37,2.13c2.53,1.42,4.54,3.39,6.02,5.93,1.48,2.53,2.22,5.38,2.22,8.56s-.74,6.02-2.22,8.56c-1.48,2.53-3.49,4.51-6.04,5.95-2.55,1.43-5.33,2.15-8.35,2.15s-5.85-.72-8.4-2.15ZM87.16,21.85c1.1-1.3,1.65-3.04,1.65-5.24s-.55-3.99-1.65-5.28c-1.1-1.3-2.65-1.94-4.67-1.94s-3.61.65-4.71,1.94c-1.1,1.3-1.65,3.06-1.65,5.28s.55,3.94,1.65,5.24c1.1,1.3,2.67,1.94,4.71,1.94s3.57-.65,4.67-1.94Z"/>
      <path class="cls-1" d="M128.21.55v8.05h-8.6v24.34h-10.16V8.6h-8.51V.55h27.27Z"/>
      <path class="cls-1" d="M134.04,30.54c-2.52-1.81-3.88-4.48-4.09-7.98h10.8c.15,1.86.98,2.79,2.47,2.79.55,0,1.01-.13,1.4-.39.38-.26.57-.66.57-1.21,0-.76-.41-1.38-1.24-1.85-.82-.47-2.1-1.01-3.84-1.62-2.08-.73-3.79-1.45-5.15-2.15-1.36-.7-2.52-1.72-3.5-3.07-.98-1.34-1.45-3.07-1.42-5.17,0-2.1.54-3.9,1.62-5.38,1.08-1.48,2.56-2.6,4.44-3.36,1.88-.76,3.99-1.14,6.34-1.14,3.96,0,7.11.92,9.45,2.75,2.33,1.83,3.56,4.41,3.68,7.73h-10.94c-.03-.92-.26-1.57-.69-1.97-.43-.4-.95-.59-1.56-.59-.43,0-.78.15-1.05.43-.27.29-.41.69-.41,1.21,0,.73.4,1.33,1.21,1.81.81.47,2.1,1.05,3.87,1.72,2.04.76,3.73,1.49,5.06,2.2,1.33.7,2.48,1.68,3.45,2.93.98,1.25,1.46,2.82,1.46,4.71s-.49,3.76-1.46,5.33c-.98,1.57-2.4,2.8-4.26,3.68-1.86.89-4.07,1.33-6.63,1.33-3.87,0-7.07-.91-9.59-2.72Z"/>
    </g>
  </g>
</svg>