<?xml version="1.0" encoding="UTF-8"?>
<svg id="Layer_2" data-name="Layer 2" xmlns="http://www.w3.org/2000/svg" viewBox="0 0 263.44 32.61">
  <defs>
    <style>
      .cls-1 {
        fill: #e7e8e9;
      }
    </style>
  </defs>
  <g id="Layer_1-2" data-name="Layer 1">
    <g>
      <path class="cls-1" d="M179.13,8.68v3.88h9.82v7.45h-9.82v4.46h11.15v7.9h-21.06V.78h21.06v7.9h-11.15Z"/>
      <g>
        <polygon class="cls-1" points="28.54 24.22 28.54 32.11 50.61 32.11 50.61 24.22 50.37 24.22 28.54 24.22"/>
        <polygon class="cls-1" points="28.54 12.37 28.54 20.27 50.61 20.27 50.61 12.37 50.37 12.37 28.54 12.37"/>
        <polygon class="cls-1" points="28.54 .52 28.54 8.42 50.61 8.42 50.61 .52 50.37 .52 28.54 .52"/>
      </g>
      <g>
        <path class="cls-1" d="M24.58,16.89c-.93,1.63-2.3,2.92-4.1,3.88-1.81.96-4,1.44-6.57,1.44h-3.95v10.09H0V.54h13.91c3.89,0,6.87.99,8.95,2.96,2.08,1.97,3.12,4.62,3.12,7.94,0,2-.46,3.82-1.39,5.45ZM15.88,11.44c0-1.94-1.03-2.92-3.1-2.92h-2.83v5.83h2.83c2.06,0,3.1-.97,3.1-2.92Z"/>
        <path class="cls-1" d="M79.62.54v7.9h-8.43v23.87h-9.96V8.43h-8.34V.54h26.74Z"/>
        <path class="cls-1" d="M97.84,32.3l-5.97-11.4h-.04v11.4h-9.96V.54h14.8c2.57,0,4.77.46,6.59,1.37,1.82.91,3.19,2.15,4.1,3.72.91,1.57,1.37,3.34,1.37,5.32,0,2.12-.59,4.01-1.77,5.65-1.18,1.65-2.88,2.83-5.09,3.54l6.91,12.16h-10.95ZM91.82,14.27h3.95c.96,0,1.67-.22,2.15-.65.48-.43.72-1.11.72-2.04,0-.84-.25-1.5-.74-1.97-.49-.48-1.2-.72-2.13-.72h-3.95v5.38Z"/>
        <path class="cls-1" d="M118.72,30.51c-2.5-1.41-4.48-3.35-5.94-5.83-1.47-2.48-2.2-5.28-2.2-8.39s.73-5.91,2.2-8.39c1.47-2.48,3.45-4.42,5.94-5.81,2.5-1.39,5.24-2.09,8.23-2.09s5.73.7,8.21,2.09c2.48,1.39,4.45,3.33,5.9,5.81,1.45,2.48,2.18,5.28,2.18,8.39s-.73,5.91-2.18,8.39c-1.45,2.48-3.42,4.43-5.92,5.83-2.5,1.41-5.23,2.11-8.19,2.11s-5.74-.7-8.23-2.11ZM131.53,21.42c1.08-1.27,1.62-2.98,1.62-5.14s-.54-3.91-1.62-5.18c-1.08-1.27-2.6-1.91-4.58-1.91s-3.54.64-4.62,1.91c-1.08,1.27-1.62,3-1.62,5.18s.54,3.87,1.62,5.14c1.08,1.27,2.62,1.91,4.62,1.91s3.5-.64,4.58-1.91Z"/>
        <path class="cls-1" d="M156.34,24.76h9.6v7.54h-19.56V.54h9.96v24.23Z"/>
        <path class="cls-1" d="M203.19.54v17.9c0,1.47.32,2.62.96,3.48.64.85,1.68,1.28,3.12,1.28s2.5-.43,3.19-1.28c.69-.85,1.03-2.01,1.03-3.48V.54h9.91v17.9c0,3.02-.63,5.6-1.88,7.74-1.26,2.14-2.98,3.75-5.16,4.82-2.18,1.08-4.62,1.62-7.31,1.62s-5.08-.54-7.16-1.62c-2.08-1.08-3.7-2.68-4.87-4.8-1.17-2.12-1.75-4.71-1.75-7.76V.54h9.91Z"/>
        <path class="cls-1" d="M263.44.54v31.76h-9.91v-15.84l-4.89,15.84h-8.52l-4.89-15.84v15.84h-9.96V.54h12.2l7,19.07,6.82-19.07h12.16Z"/>
      </g>
    </g>
  </g>
</svg>