<?xml version="1.0" encoding="UTF-8"?>
<svg id="Layer_2" data-name="Layer 2" xmlns="http://www.w3.org/2000/svg" viewBox="0 0 197.2 33.07">
  <defs>
    <style>
      .cls-1 {
        fill: #414142;
      }
    </style>
  </defs>
  <g id="Layer_1-2" data-name="Layer 1">
    <g id="uuid-af53bcc4-0695-485a-843f-305c2ddab8a7" data-name="Layer 1-2">
      <g>
        <path class="cls-1" d="M46.64,32.75l-5.91-8.37-4.91,8.37h-11.51l10.6-16.6L23.85.55h11.96l5.69,8.05L46.23.55h11.51l-10.42,16.28,11.28,15.92h-11.96Z"/>
        <path class="cls-1" d="M85.35,17.13c-.94,1.65-2.33,2.96-4.16,3.93-1.83.97-4.06,1.46-6.66,1.46h-4v10.23h-10.1V.55h14.1c3.94,0,6.97,1,9.07,3,2.11,2,3.16,4.69,3.16,8.05,0,2.03-.47,3.87-1.41,5.53h0ZM76.52,11.6c0-1.97-1.05-2.96-3.14-2.96h-2.87v5.91h2.87c2.09,0,3.14-.99,3.14-2.96h0Z"/>
        <path class="cls-1" d="M105.68,32.75l-6.05-11.55h-.05v11.55h-10.1V.55h15.01c2.61,0,4.84.46,6.69,1.39,1.85.93,3.24,2.18,4.16,3.78.92,1.59,1.39,3.39,1.39,5.39,0,2.15-.6,4.06-1.8,5.73-1.2,1.67-2.92,2.87-5.16,3.59l7.01,12.33h-11.1,0ZM99.58,14.46h4c.97,0,1.7-.22,2.18-.66.48-.44.73-1.13.73-2.07,0-.85-.25-1.52-.75-2-.5-.48-1.22-.73-2.16-.73h-4v5.46h0Z"/>
        <path class="cls-1" d="M129.61,8.6v3.96h10.01v7.6h-10.01v4.55h11.37v8.05h-21.47V.55h21.47v8.05h-11.37Z"/>
        <path class="cls-1" d="M147.41,30.36c-2.5-1.8-3.86-4.45-4.07-7.94h10.73c.15,1.85.97,2.77,2.46,2.77.55,0,1.01-.13,1.39-.39.38-.26.57-.66.57-1.21,0-.76-.41-1.37-1.23-1.84-.82-.47-2.09-1.01-3.82-1.61-2.06-.73-3.77-1.44-5.12-2.14-1.35-.7-2.51-1.71-3.48-3.05-.97-1.33-1.44-3.05-1.41-5.14,0-2.09.54-3.87,1.61-5.34,1.08-1.47,2.55-2.58,4.41-3.34,1.86-.76,3.96-1.14,6.3-1.14,3.94,0,7.07.91,9.39,2.73,2.32,1.82,3.54,4.38,3.66,7.69h-10.87c-.03-.91-.26-1.56-.68-1.96-.42-.39-.94-.59-1.55-.59-.42,0-.77.14-1.05.43-.27.29-.41.69-.41,1.21,0,.73.4,1.33,1.21,1.8.8.47,2.08,1.04,3.84,1.71,2.03.76,3.71,1.49,5.03,2.18,1.32.7,2.46,1.67,3.43,2.91.97,1.24,1.46,2.8,1.46,4.69s-.49,3.74-1.46,5.3c-.97,1.56-2.38,2.78-4.23,3.66-1.85.88-4.05,1.32-6.6,1.32-3.85,0-7.03-.9-9.53-2.71h0Z"/>
        <path class="cls-1" d="M175.39,30.36c-2.5-1.8-3.86-4.45-4.07-7.94h10.73c.15,1.85.97,2.77,2.46,2.77.55,0,1.01-.13,1.39-.39.38-.26.57-.66.57-1.21,0-.76-.41-1.37-1.23-1.84-.82-.47-2.09-1.01-3.82-1.61-2.06-.73-3.77-1.44-5.12-2.14-1.35-.7-2.51-1.71-3.48-3.05-.97-1.33-1.44-3.05-1.41-5.14,0-2.09.54-3.87,1.61-5.34,1.08-1.47,2.55-2.58,4.41-3.34,1.86-.76,3.96-1.14,6.3-1.14,3.94,0,7.07.91,9.39,2.73,2.32,1.82,3.54,4.38,3.66,7.69h-10.87c-.03-.91-.26-1.56-.68-1.96-.42-.39-.94-.59-1.55-.59-.42,0-.77.14-1.05.43-.27.29-.41.69-.41,1.21,0,.73.4,1.33,1.21,1.8.8.47,2.08,1.04,3.84,1.71,2.03.76,3.71,1.49,5.03,2.18,1.32.7,2.46,1.67,3.43,2.91.97,1.24,1.46,2.8,1.46,4.69s-.49,3.74-1.46,5.3c-.97,1.56-2.38,2.78-4.23,3.66-1.85.88-4.05,1.32-6.6,1.32-3.85,0-7.03-.9-9.53-2.71h0Z"/>
      </g>
      <polygon class="cls-1" points="0 24.64 0 32.69 22.5 32.69 22.5 24.64 22.26 24.64 0 24.64"/>
      <polygon class="cls-1" points="0 12.57 0 20.62 22.5 20.62 22.5 12.57 22.26 12.57 0 12.57"/>
      <polygon class="cls-1" points="0 .49 0 8.54 22.5 8.54 22.5 .49 22.26 .49 0 .49"/>
    </g>
  </g>
</svg>