<?xml version="1.0" encoding="UTF-8"?>
<svg id="Layer_2" data-name="Layer 2" xmlns="http://www.w3.org/2000/svg" viewBox="0 0 309.24 33.07">
  <defs>
    <style>
      .cls-1 {
        fill: #414142;
      }
    </style>
  </defs>
  <g id="Layer_1-2" data-name="Layer 1">
    <g id="uuid-ed309d73-d821-4f1a-9d6d-84f021074767" data-name="Layer 1-2">
      <g>
        <path class="cls-1" d="M22.93,27.88h-10.73l-1.59,4.87H0L11.78.55h11.64l11.74,32.2h-10.64l-1.59-4.87h0ZM20.47,20.29l-2.91-8.96-2.91,8.96h5.82Z"/>
        <path class="cls-1" d="M46.85.55v18.15c0,1.49.33,2.66.98,3.53.65.86,1.71,1.3,3.16,1.3s2.53-.43,3.23-1.3c.7-.86,1.05-2.04,1.05-3.53V.55h10.05v18.15c0,3.06-.64,5.68-1.91,7.85-1.27,2.17-3.02,3.8-5.23,4.89-2.21,1.09-4.69,1.64-7.41,1.64s-5.15-.55-7.26-1.64c-2.11-1.09-3.75-2.71-4.94-4.87-1.18-2.15-1.77-4.78-1.77-7.87V.55h10.05Z"/>
        <path class="cls-1" d="M94.52.55v8.01h-8.55v24.2h-10.1V8.55h-8.46V.55h27.11Z"/>
        <path class="cls-1" d="M104.14,30.93c-2.53-1.42-4.54-3.4-6.03-5.91-1.49-2.52-2.23-5.35-2.23-8.51s.74-5.99,2.23-8.51c1.49-2.52,3.49-4.48,6.03-5.89,2.53-1.41,5.31-2.11,8.35-2.11s5.81.7,8.32,2.11c2.52,1.41,4.51,3.37,5.98,5.89,1.47,2.52,2.21,5.35,2.21,8.51s-.74,5.99-2.21,8.51c-1.47,2.52-3.47,4.49-6,5.91-2.53,1.43-5.3,2.14-8.3,2.14s-5.82-.71-8.35-2.14h0ZM117.13,21.72c1.09-1.29,1.64-3.02,1.64-5.21s-.55-3.96-1.64-5.25c-1.09-1.29-2.64-1.93-4.64-1.93s-3.59.64-4.69,1.93c-1.09,1.29-1.64,3.04-1.64,5.25s.55,3.92,1.64,5.21c1.09,1.29,2.65,1.93,4.69,1.93s3.55-.64,4.64-1.93Z"/>
        <path class="cls-1" d="M170.89.55v32.2h-10.05v-16.06l-4.96,16.06h-8.64l-4.96-16.06v16.06h-10.1V.55h12.37l7.1,19.33,6.91-19.33h12.33Z"/>
        <path class="cls-1" d="M182.33,30.93c-2.53-1.42-4.54-3.4-6.03-5.91-1.49-2.52-2.23-5.35-2.23-8.51s.74-5.99,2.23-8.51c1.49-2.52,3.49-4.48,6.03-5.89,2.53-1.41,5.31-2.11,8.35-2.11s5.81.7,8.32,2.11c2.52,1.41,4.51,3.37,5.98,5.89,1.47,2.52,2.21,5.35,2.21,8.51s-.74,5.99-2.21,8.51c-1.47,2.52-3.47,4.49-6,5.91-2.53,1.43-5.3,2.14-8.3,2.14s-5.82-.71-8.35-2.14ZM195.32,21.72c1.09-1.29,1.64-3.02,1.64-5.21s-.55-3.96-1.64-5.25c-1.09-1.29-2.64-1.93-4.64-1.93s-3.59.64-4.69,1.93c-1.09,1.29-1.64,3.04-1.64,5.25s.55,3.92,1.64,5.21c1.09,1.29,2.65,1.93,4.69,1.93s3.55-.64,4.64-1.93Z"/>
        <path class="cls-1" d="M235.66.55v8.01h-8.55v24.2h-10.1V8.55h-8.46V.55h27.11,0Z"/>
        <path class="cls-1" d="M248.04.55v32.2h-10.1V.55h10.1Z"/>
        <path class="cls-1" d="M284.56.55l-10.83,32.2h-13.05L249.85.55h10.73l6.64,22.15,6.6-22.15h10.74Z"/>
      </g>
      <polygon class="cls-1" points="286.74 24.7 286.74 32.75 309.24 32.75 309.24 24.7 309 24.7 286.74 24.7"/>
      <polygon class="cls-1" points="286.74 12.62 286.74 20.67 309.24 20.67 309.24 12.62 309 12.62 286.74 12.62"/>
      <polygon class="cls-1" points="286.74 .55 286.74 8.6 309.24 8.6 309.24 .55 309 .55 286.74 .55"/>
    </g>
  </g>
</svg>