<?xml version="1.0" encoding="UTF-8"?>
<svg id="Layer_2" data-name="Layer 2" xmlns="http://www.w3.org/2000/svg" viewBox="0 0 335.12 69.82">
  <defs>
    <style>
      .cls-1 {
        fill: #e12728;
      }
    </style>
  </defs>
  <g id="Layer_1-2" data-name="Layer 1">
    <g id="uuid-f627a082-e44a-4ea6-a425-09e8fe57e11e" data-name="Layer 1-2">
      <g>
        <path class="cls-1" d="M55.79,5.7v46.41h-14.49v-23.14l-7.15,23.14h-12.46l-7.15-23.14v23.14H0V5.7h17.83l10.23,27.86,9.96-27.86h17.77,0Z"/>
        <path class="cls-1" d="M61.72,23.5c1.33-2.86,3.16-5.05,5.47-6.56,2.32-1.51,4.92-2.26,7.8-2.26,2.4,0,4.48.49,6.23,1.47,1.75.98,3.08,2.33,4,4.03v-5.05h14.49v36.97h-14.49v-5.05c-.92,1.7-2.25,3.05-4,4.03-1.75.98-3.82,1.47-6.23,1.47-2.88,0-5.49-.75-7.8-2.26-2.32-1.51-4.14-3.69-5.47-6.56-1.33-2.86-2-6.24-2-10.13s.67-7.27,2-10.13h0ZM83.71,29.04c-1.01-1.09-2.29-1.64-3.87-1.64s-2.86.55-3.87,1.64c-1.01,1.09-1.51,2.62-1.51,4.59s.5,3.5,1.51,4.59c1,1.09,2.29,1.64,3.87,1.64s2.86-.55,3.87-1.64c1-1.09,1.51-2.62,1.51-4.59s-.5-3.5-1.51-4.59Z"/>
        <path class="cls-1" d="M124.13,16.16c1.73-.98,3.79-1.47,6.2-1.47,2.88,0,5.48.75,7.8,2.26,2.32,1.51,4.14,3.69,5.47,6.56,1.33,2.86,2,6.24,2,10.13s-.67,7.27-2,10.13c-1.33,2.86-3.16,5.05-5.47,6.56-2.32,1.51-4.92,2.26-7.8,2.26-2.4,0-4.47-.49-6.2-1.47-1.73-.98-3.05-2.33-3.97-4.03v22.75h-14.55V15.14h14.55v5.05c.92-1.7,2.24-3.05,3.97-4.03h0ZM129.34,29.04c-1.01-1.09-2.29-1.64-3.87-1.64s-2.86.55-3.87,1.64c-1.01,1.09-1.51,2.62-1.51,4.59s.5,3.5,1.51,4.59c1,1.09,2.29,1.64,3.87,1.64s2.86-.55,3.87-1.64c1-1.09,1.51-2.62,1.51-4.59s-.5-3.5-1.51-4.59Z"/>
        <path class="cls-1" d="M164.08,3.6v48.51h-14.55V3.6h14.55Z"/>
        <path class="cls-1" d="M205.58,36.19h-23.4c.22,3.19,1.55,4.79,4,4.79,1.57,0,2.71-.72,3.41-2.16h15.41c-.52,2.62-1.63,4.97-3.31,7.05-1.68,2.08-3.8,3.72-6.36,4.92-2.56,1.2-5.37,1.8-8.42,1.8-3.67,0-6.94-.76-9.8-2.29-2.86-1.53-5.09-3.73-6.69-6.59-1.6-2.86-2.39-6.22-2.39-10.06s.8-7.2,2.39-10.06c1.59-2.86,3.82-5.06,6.69-6.59,2.86-1.53,6.13-2.29,9.8-2.29s6.94.75,9.8,2.26c2.86,1.51,5.09,3.66,6.69,6.46,1.59,2.8,2.39,6.1,2.39,9.9,0,1.01-.07,1.97-.2,2.88h0ZM191.03,29.83c0-1.22-.39-2.15-1.18-2.79-.79-.63-1.77-.95-2.95-.95-2.58,0-4.09,1.25-4.52,3.74h8.65Z"/>
        <path class="cls-1" d="M224.26,3.6v48.51h-14.55V3.6h14.55Z"/>
        <path class="cls-1" d="M265.76,36.19h-23.4c.22,3.19,1.55,4.79,4,4.79,1.57,0,2.71-.72,3.41-2.16h15.41c-.52,2.62-1.63,4.97-3.31,7.05-1.68,2.08-3.8,3.72-6.36,4.92-2.56,1.2-5.37,1.8-8.42,1.8-3.67,0-6.94-.76-9.8-2.29-2.86-1.53-5.09-3.73-6.69-6.59-1.6-2.86-2.39-6.22-2.39-10.06s.8-7.2,2.39-10.06c1.59-2.86,3.82-5.06,6.69-6.59,2.86-1.53,6.13-2.29,9.8-2.29s6.94.75,9.8,2.26c2.86,1.51,5.09,3.66,6.69,6.46,1.59,2.8,2.39,6.1,2.39,9.9,0,1.01-.07,1.97-.2,2.88h0ZM251.2,29.83c0-1.22-.39-2.15-1.18-2.79-.79-.63-1.77-.95-2.95-.95-2.58,0-4.09,1.25-4.52,3.74h8.65Z"/>
        <path class="cls-1" d="M269.92,23.5c1.33-2.86,3.16-5.05,5.47-6.56,2.32-1.51,4.92-2.26,7.8-2.26,2.4,0,4.48.49,6.23,1.47,1.75.98,3.08,2.33,4,4.03v-5.05h14.49v36.97h-14.49v-5.05c-.92,1.7-2.25,3.05-4,4.03-1.75.98-3.82,1.47-6.23,1.47-2.88,0-5.49-.75-7.8-2.26-2.32-1.51-4.14-3.69-5.47-6.56-1.33-2.86-2-6.24-2-10.13s.67-7.27,2-10.13h0ZM291.91,29.04c-1.01-1.09-2.29-1.64-3.87-1.64s-2.86.55-3.87,1.64c-1.01,1.09-1.51,2.62-1.51,4.59s.5,3.5,1.51,4.59c1,1.09,2.29,1.64,3.87,1.64s2.86-.55,3.87-1.64c1-1.09,1.51-2.62,1.51-4.59s-.5-3.5-1.51-4.59Z"/>
        <path class="cls-1" d="M333.48,12.39c-1.09,0-1.92.21-2.49.62-.57.42-.96,1.13-1.18,2.13h5.31v12.13h-5.44v24.85h-14.55v-24.85h-3.93v-12.13h3.93c.09-4.81,1.61-8.53,4.56-11.18,2.95-2.64,7.09-3.97,12.42-3.97.61,0,1.62.04,3.02.13v12.39c-.79-.09-1.33-.13-1.64-.13h0Z"/>
      </g>
    </g>
  </g>
</svg>